<svg xmlns="http://www.w3.org/2000/svg" viewBox="0 0 512 512">
  <defs>
    <linearGradient id="rudra-gradient" x1="0%" y1="0%" x2="100%" y2="100%">
      <stop offset="0%" style="stop-color:#10b981;stop-opacity:1" />
      <stop offset="100%" style="stop-color:#06b6d4;stop-opacity:1" />
    </linearGradient>
    <filter id="glow" x="-20%" y="-20%" width="140%" height="140%">
      <feGaussianBlur stdDeviation="15" result="blur" />
      <feComposite in="SourceGraphic" in2="blur" operator="over" />
    </filter>
  </defs>
  
  <!-- Background for App Icon context (optional, usually transparent for favicon) -->
  <rect width="512" height="512" rx="128" fill="#0f172a" />
  
  <!-- Main Logo Shape: Abstract Circuit Brain -->
  <g transform="translate(56, 56) scale(0.78)" filter="url(#glow)">
      <!-- Central Node -->
    <circle cx="256" cy="256" r="40" fill="url(#rudra-gradient)" />
    
    <!-- Orbiting Circuit Paths -->
    <path d="M256 120 C 180 120, 120 180, 120 256" stroke="url(#rudra-gradient)" stroke-width="24" stroke-linecap="round" fill="none" opacity="0.8"/>
    <path d="M256 392 C 332 392, 392 332, 392 256" stroke="url(#rudra-gradient)" stroke-width="24" stroke-linecap="round" fill="none" opacity="0.8"/>
    <path d="M392 256 C 392 180, 332 120, 256 120" stroke="url(#rudra-gradient)" stroke-width="24" stroke-linecap="round" fill="none" stroke-dasharray="20 40" opacity="0.6"/>
    
    <!-- Connection Dots -->
    <circle cx="120" cy="256" r="16" fill="#14b8a6" />
    <circle cx="256" cy="120" r="16" fill="#10b981" />
    <circle cx="392" cy="256" r="16" fill="#06b6d4" />
    <circle cx="256" cy="392" r="16" fill="#06b6d4" />

    <!-- Rays -->
    <line x1="256" y1="216" x2="256" y2="160" stroke="#fff" stroke-width="8" stroke-linecap="round" opacity="0.5" />
    <line x1="256" y1="296" x2="256" y2="352" stroke="#fff" stroke-width="8" stroke-linecap="round" opacity="0.5" />
    <line x1="216" y1="256" x2="160" y2="256" stroke="#fff" stroke-width="8" stroke-linecap="round" opacity="0.5" />
    <line x1="296" y1="256" x2="352" y2="256" stroke="#fff" stroke-width="8" stroke-linecap="round" opacity="0.5" />
  </g>
</svg>